<svg width="22" height="22" viewBox="0 0 1000 1000" fill="none" xmlns="http://www.w3.org/2000/svg">
<path d="M171 500C171 484.951 172.01 470.138 173.967 455.625C195.635 294.91 333.347 171 500 171C681.702 171 829 318.298 829 500C829 681.702 681.702 829 500 829C402.497 829 314.9 786.585 254.655 719.2" stroke="white" stroke-width="60" stroke-linecap="round"/>
<path d="M184.856 634C178.698 644.667 163.302 644.667 157.144 634L85.2635 509.5C79.1051 498.833 86.8031 485.5 99.1199 485.5L242.88 485.5C255.197 485.5 262.895 498.833 256.737 509.5L184.856 634Z" fill="white"/>
<path d="M321 499.242H408.5M496 499.242H408.5M408.5 499.242V412M408.5 499.242V543.121V587" stroke="white" stroke-width="43" stroke-linecap="round"/>
<path d="M559 499.242H646.5M734 499.242H646.5M646.5 499.242V412M646.5 499.242V543.121V587" stroke="white" stroke-width="43" stroke-linecap="round"/>
</svg>
